<svg transform="scale(1)" version="1.1" id="Ptsd2RumKh" xmlns="http://www.w3.org/2000/svg" xmlns:xlink="http://www.w3.org/1999/xlink" x="0px" y="0px" viewBox="0 0 500 500" xml:space="preserve" class="pbimage_pbimage__wrapper__image__0LEis false"><title>Chart 2</title><style type="text/css"> .st0{fill:#D1D3D4;} .st1{fill:#FFFFFF;} .st2{fill:#231F20;} .st3{fill:#68E1FD;}
 .st3{fill:#68E1FD;}
 .st2{fill:#231F20;}
 .st1{fill:#FFFFFF;}
 .st0{fill:#D1D3D4;}</style><g id="XY_Axis"><g id="XY_Axis-2"><path class="st0" d="M454,373.6H78.5c-0.4,0-0.7-0.3-0.7-0.7l0,0V114c0-0.4,0.3-0.7,0.7-0.7c0.4,0,0.7,0.3,0.7,0.7v258.2H454
			c0.4,0,0.7,0.3,0.7,0.7C454.7,373.2,454.4,373.6,454,373.6z"></path></g><path class="st0" d="M91.7,373.5H46c-0.4,0-0.7-0.3-0.7-0.7c0-0.4,0.3-0.7,0.7-0.7h45.7c0.4,0,0.7,0.3,0.7,0.7
		C92.4,373.1,92.1,373.5,91.7,373.5C91.7,373.5,91.7,373.5,91.7,373.5z" fill="#D1D3D4"></path></g><g id="Bar_Chart"><rect class="st1" x="209.6" y="189.9" width="77.9" height="182.3"></rect><path class="st2" d="M287.5,189.9v182.3h-77.9V189.9H287.5 M287.5,188.5h-77.9c-0.8,0-1.4,0.6-1.4,1.4v182.3c0,0.8,0.6,1.4,1.4,1.4
		h77.9c0.8,0,1.4-0.6,1.4-1.4V189.9C288.9,189.1,288.2,188.5,287.5,188.5z"></path><rect class="st1" x="102.7" y="251.5" width="77.9" height="120.7"></rect><path class="st2" d="M180.6,251.5v120.7h-77.9V251.5H180.6 M180.6,250.1h-77.9c-0.8,0-1.4,0.6-1.4,1.4v120.7c0,0.8,0.6,1.4,1.4,1.4
		h77.9c0.8,0,1.4-0.6,1.4-1.4V251.5C182,250.7,181.4,250.1,180.6,250.1z"></path><rect class="st1" x="316.4" y="118.6" width="77.9" height="253.6"></rect><path class="st2" d="M394.4,118.6v253.6h-77.9V118.6H394.4 M394.4,117.2h-77.9c-0.8,0-1.4,0.6-1.4,1.4v253.6c0,0.8,0.6,1.4,1.4,1.4
		h77.9c0.8,0,1.4-0.6,1.4-1.4V118.6C395.8,117.8,395.1,117.2,394.4,117.2z"></path></g><g id="Plant"><path class="st1" d="M261.2,348.7c2.8-2.5,6-4.6,9.4-6.1c0.3,10.1-3.8,19.3-7.6,25.7h-12.3"></path><path class="st2" d="M263,368.9h-12.2c-0.4,0-0.7-0.3-0.7-0.7c0-0.4,0.3-0.7,0.7-0.7c0,0,0,0,0,0h11.9c3.4-5.8,7.3-14.4,7.3-23.9
		c-3,1.5-5.8,3.4-8.3,5.6c-0.3,0.3-0.7,0.2-1-0.1s-0.2-0.7,0.1-1c2.9-2.6,6.1-4.7,9.6-6.3c0.2-0.1,0.5-0.1,0.6,0.1
		c0.2,0.1,0.3,0.3,0.3,0.6c0.3,10.4-4,19.9-7.7,26.1C263.5,368.8,263.3,368.9,263,368.9L263,368.9z"></path><path class="st1" d="M243.6,351.4c3-15.8,15.4-25.6,15.4-25.6c2.3,7.4,3.1,15.2,2.2,22.9c-0.6,6.7-2.1,13.2-4.2,19.5h-13.2"></path><path class="st2" d="M257,368.9h-13.3c-0.4,0-0.7-0.3-0.7-0.7c0-0.4,0.3-0.7,0.7-0.7h12.7c2.1-6.1,3.4-12.5,4-18.9
		c0.8-7.3,0.1-14.6-1.9-21.6c-2.7,2.5-11.8,11.5-14.3,24.6c-0.1,0.4-0.4,0.6-0.8,0.6c-0.4-0.1-0.6-0.4-0.6-0.8c0,0,0,0,0,0
		c3-15.8,15.5-26,15.6-26.1c0.2-0.1,0.4-0.2,0.6-0.1c0.2,0.1,0.4,0.2,0.5,0.5c2.3,7.5,3.1,15.4,2.3,23.2c-0.6,6.7-2.1,13.3-4.3,19.7
		C257.5,368.7,257.2,368.9,257,368.9L257,368.9z"></path><path class="st1" d="M237.1,368.2h11.7c0.1-3.5-0.7-8.7-4.4-15.5l-0.8-1.3c-6.8-11.5-13-11.4-13-11.4
		C228,352.1,233.5,362.8,237.1,368.2L237.1,368.2z"></path><path class="st2" d="M248.8,368.9h-11.7c-0.2,0-0.4-0.1-0.6-0.3c-3.6-5.4-9.2-16.4-6.6-28.7c0.1-0.3,0.3-0.5,0.7-0.5
		c0.3,0,6.7,0,13.6,11.7c0.2,0.4,0.5,0.9,0.8,1.3c3.9,7.1,4.6,12.6,4.5,15.9C249.4,368.6,249.1,368.9,248.8,368.9L248.8,368.9z
		 M237.5,367.5h10.6c0-3.2-0.8-8.1-4.4-14.5c-0.2-0.5-0.5-0.9-0.7-1.3c-5.3-9-10.2-10.6-11.8-10.9C229,352.1,234,362.2,237.5,367.5
		L237.5,367.5z"></path><polygon class="st2" points="239.2,386.8 262.1,386.8 265.8,368.2 235.5,368.2 	"></polygon></g><g id="Magnifying_Glass"><rect class="st2" x="397.4" y="225.7" transform="matrix(0.8904 -0.4552 0.4552 0.8904 -85.0792 215.2584)" width="14" height="117.2"></rect><path class="st2" d="M424.4,339.8l-53.3-104.3c-0.1-0.2,0-0.5,0.2-0.7c0,0,0,0,0,0l12.4-6.4c0.2-0.1,0.5,0,0.7,0.2c0,0,0,0,0,0
		L437.7,333c0.1,0.2,0,0.5-0.2,0.7c0,0,0,0,0,0l-12.4,6.4C424.8,340.2,424.5,340.1,424.4,339.8L424.4,339.8z M383.7,229.6l-11.5,5.9
		l52.9,103.4l11.5-5.9L383.7,229.6z"></path><path class="st2" d="M395,277.9l9.8-5c3.7-1.9,8.3-0.4,10.2,3.3l36.8,71.9c1.9,3.7,0.4,8.3-3.3,10.2l-9.8,5
		c-3.7,1.9-8.3,0.4-10.2-3.3l-36.8-71.9C389.8,284.4,391.2,279.8,395,277.9z"></path><path class="st2" d="M356.2,272.6c-40.1,0-72.7-32.5-72.7-72.6c0-40.1,32.5-72.7,72.6-72.7c40.1,0,72.7,32.5,72.7,72.6
		c0,19.3-7.7,37.7-21.3,51.4C394,265,375.5,272.7,356.2,272.6z M356.2,128.7c-39.4,0-71.2,31.9-71.2,71.3c0,18.9,7.5,37,20.9,50.4
		l0,0c27.8,27.8,72.9,27.8,100.8,0c27.8-27.8,27.8-72.9,0-100.8C393.3,136.2,375.1,128.7,356.2,128.7z"></path><path class="st1" d="M305,251.2c-28.3-28.3-28.4-74.2-0.1-102.6c28.3-28.3,74.2-28.4,102.6-0.1s28.4,74.2,0.1,102.6
		c-13.6,13.6-32.1,21.3-51.3,21.3C337,272.4,318.6,264.8,305,251.2z"></path><path class="st2" d="M356.2,273.1c-40.4,0-73.1-32.8-73-73.2s32.8-73.1,73.2-73c40.4,0,73.1,32.8,73,73.2c0,19.4-7.7,38-21.4,51.6
		C394.3,265.5,375.7,273.2,356.2,273.1L356.2,273.1z M356.2,128.3c-39.6,0-71.7,32.1-71.7,71.8s32.1,71.7,71.8,71.7
		c39.6,0,71.7-32.1,71.7-71.8c0-19-7.6-37.2-21-50.7C393.5,135.8,375.3,128.2,356.2,128.3z"></path><path class="st1" d="M395.2,161c-22.1-21-57-20.2-78,1.9c-20.3,21.3-20.3,54.8,0,76.1c0.3,0.3,0.6,0.6,0.9,0.9
		c5,4.8,10.8,8.5,17.1,11.1c28.2,11.6,60.4-1.8,72-30C415.8,200.4,411.1,176.7,395.2,161L395.2,161z"></path><path class="st2" d="M356.2,144.9c30.5,0,55.1,24.7,55.1,55.2c0,30.5-24.7,55.1-55.2,55.1c-7.1,0-14.2-1.4-20.8-4.1
		c-6.4-2.6-12.2-6.4-17.2-11.1l-0.9-0.9c-21.5-21.5-21.6-56.4,0-78C327.5,150.7,341.6,144.9,356.2,144.9 M356.2,143.5
		c-31.2,0-56.6,25.3-56.5,56.6c0,15,6,29.4,16.5,40l0.9,0.9c5.1,4.9,11.1,8.8,17.6,11.4c28.9,11.9,61.9-1.9,73.8-30.8
		c11.9-28.9-1.9-61.9-30.8-73.8C370.9,144.9,363.6,143.5,356.2,143.5L356.2,143.5L356.2,143.5z"></path></g><g id="Arrow-2"><path class="st3" d="M380.8,168.9l-2.6,60.6c-0.1,1.5-1.3,2.6-2.8,2.6c-0.4,0-0.9-0.1-1.3-0.4L356.3,221l-21,30
		c-6.4-2.6-12.2-6.4-17.2-11.1l20.5-29.4l-19-11.3c-1.3-0.8-1.7-2.4-0.9-3.7c0.3-0.4,0.6-0.8,1.1-1l57-28.1c1.3-0.7,2.9-0.1,3.6,1.2
		C380.7,167.9,380.7,168.4,380.8,168.9L380.8,168.9z"></path></g><g id="Line_Chart"><path class="st3" d="M83.2,369.1c-1.2,0-2.1-1-2.1-2.1c0-0.4,0.1-0.8,0.3-1.1l61.8-95.8c0.3-0.5,0.9-0.9,1.6-1
		c0.6-0.1,1.3,0.2,1.7,0.7l48.7,52.7l56.3-103.4c0.3-0.6,1-1,1.6-1.1c0.7-0.1,1.4,0.2,1.8,0.8l49.7,61.1l60.8-99.2
		c0.6-1,1.9-1.3,2.9-0.7c1,0.6,1.3,1.9,0.7,2.9l0,0l-62.3,101.7c-0.4,0.6-1,1-1.6,1c-0.7,0-1.3-0.2-1.8-0.8l-49.6-61l-56.2,103.2
		c-0.6,1-1.8,1.4-2.8,0.8c-0.2-0.1-0.4-0.3-0.5-0.4l-48.8-52.9l-60.3,93.5C84.5,368.8,83.8,369.2,83.2,369.1L83.2,369.1z"></path><ellipse class="st3" transform="matrix(0.3163 -0.9487 0.9487 0.3163 -34.1354 391.7776)" cx="254.7" cy="219.6" rx="10" ry="10"></ellipse><circle class="st3" cx="146.4" cy="270.7" r="10"></circle></g><g id="Line_of_Text"><path class="st0" d="M153.5,205.3h-45.8c-0.4,0-0.7-0.3-0.7-0.7c0-0.4,0.3-0.7,0.7-0.7h45.8c0.4,0,0.7,0.3,0.7,0.7
		C154.2,205,153.9,205.3,153.5,205.3z"></path><path class="st0" d="M180.6,190.6h-72.9c-0.4,0-0.7-0.3-0.7-0.7c0-0.4,0.3-0.7,0.7-0.7h72.9c0.4,0,0.7,0.3,0.7,0.7
		C181.3,190.2,181,190.6,180.6,190.6C180.6,190.6,180.6,190.6,180.6,190.6z"></path><path class="st0" d="M180.6,175.8h-72.9c-0.4,0-0.7-0.3-0.7-0.7c0-0.4,0.3-0.7,0.7-0.7h72.9c0.4,0,0.7,0.3,0.7,0.7
		C181.3,175.5,181,175.8,180.6,175.8C180.6,175.8,180.6,175.8,180.6,175.8z"></path><path class="st0" d="M180.6,161.1h-72.9c-0.4,0-0.7-0.3-0.7-0.7c0-0.4,0.3-0.7,0.7-0.7c0,0,0,0,0,0h72.9c0.4,0,0.7,0.3,0.7,0.7
		C181.3,160.7,181,161,180.6,161.1z"></path><path class="st0" d="M180.6,146.3h-72.9c-0.4,0-0.7-0.3-0.7-0.7c0-0.4,0.3-0.7,0.7-0.7h72.9c0.4,0,0.7,0.3,0.7,0.7
		C181.3,146,181,146.3,180.6,146.3C180.6,146.3,180.6,146.3,180.6,146.3z"></path></g></svg>